<svg xmlns="http://www.w3.org/2000/svg" viewBox="0 0 500 500"><g id="freepik--background-complete--inject-14"><rect y="382.4" width="500" height="0.25" style="fill:#ebebeb"></rect><path d="M237,337.8H43.91a5.71,5.71,0,0,1-5.7-5.71V60.66A5.71,5.71,0,0,1,43.91,55H237a5.71,5.71,0,0,1,5.71,5.71V332.09A5.71,5.71,0,0,1,237,337.8ZM43.91,55.2a5.46,5.46,0,0,0-5.45,5.46V332.09a5.46,5.46,0,0,0,5.45,5.46H237a5.47,5.47,0,0,0,5.46-5.46V60.66A5.47,5.47,0,0,0,237,55.2Z" style="fill:#ebebeb"></path><path d="M453.31,337.8H260.21a5.72,5.72,0,0,1-5.71-5.71V60.66A5.72,5.72,0,0,1,260.21,55h193.1A5.71,5.71,0,0,1,459,60.66V332.09A5.71,5.71,0,0,1,453.31,337.8ZM260.21,55.2a5.47,5.47,0,0,0-5.46,5.46V332.09a5.47,5.47,0,0,0,5.46,5.46h193.1a5.47,5.47,0,0,0,5.46-5.46V60.66a5.47,5.47,0,0,0-5.46-5.46Z" style="fill:#ebebeb"></path><rect x="423.9" y="398.49" width="26" height="0.25" style="fill:#ebebeb"></rect><rect x="311" y="401.21" width="45.03" height="0.25" style="fill:#ebebeb"></rect><rect x="362.11" y="389.21" width="60.79" height="0.25" style="fill:#ebebeb"></rect><rect x="52.46" y="390.89" width="19.23" height="0.25" style="fill:#ebebeb"></rect><rect x="80.6" y="390.89" width="55.29" height="0.25" style="fill:#ebebeb"></rect><rect x="169.67" y="395.11" width="74.47" height="0.25" style="fill:#ebebeb"></rect><rect x="46.24" y="309.02" width="21.2" height="73.38" style="fill:#fafafa"></rect><rect x="64.8" y="325.12" width="21.2" height="57.28" style="fill:#fafafa"></rect><rect x="78.36" y="277.92" width="21.2" height="104.48" style="fill:#fafafa"></rect><rect x="92.45" y="193.2" width="21.2" height="189.2" style="fill:#fafafa"></rect><rect x="109.2" y="207.93" width="56.89" height="174.47" style="fill:#fafafa"></rect><rect x="387.27" y="332.18" width="24.22" height="50.22" transform="translate(798.77 714.58) rotate(180)" style="fill:#fafafa"></rect><rect x="366.06" y="343.19" width="24.22" height="39.2" transform="translate(756.34 725.59) rotate(180)" style="fill:#fafafa"></rect><rect x="350.57" y="310.89" width="24.22" height="71.51" transform="translate(725.37 693.29) rotate(180)" style="fill:#fafafa"></rect><rect x="334.47" y="252.91" width="24.22" height="129.49" transform="translate(693.17 635.31) rotate(180)" style="fill:#fafafa"></rect><rect x="273.17" y="224.21" width="74.33" height="158.19" style="fill:#f0f0f0"></rect><rect x="336.88" y="230.84" width="3.54" height="19.25" style="fill:#f5f5f5"></rect><rect x="336.88" y="260.95" width="3.54" height="19.25" style="fill:#f5f5f5"></rect><rect x="336.88" y="291.05" width="3.54" height="19.25" style="fill:#f5f5f5"></rect><rect x="336.88" y="321.15" width="3.54" height="19.25" style="fill:#f5f5f5"></rect><rect x="336.88" y="351.26" width="3.54" height="19.25" style="fill:#f5f5f5"></rect><rect x="324.34" y="230.84" width="3.54" height="19.25" style="fill:#f5f5f5"></rect><rect x="324.34" y="260.95" width="3.54" height="19.25" style="fill:#f5f5f5"></rect><rect x="324.34" y="291.05" width="3.54" height="19.25" style="fill:#f5f5f5"></rect><rect x="324.34" y="321.15" width="3.54" height="19.25" style="fill:#f5f5f5"></rect><rect x="324.34" y="351.26" width="3.54" height="19.25" style="fill:#f5f5f5"></rect><rect x="311.8" y="230.84" width="3.54" height="19.25" style="fill:#f5f5f5"></rect><rect x="311.8" y="260.95" width="3.54" height="19.25" style="fill:#f5f5f5"></rect><rect x="311.8" y="291.05" width="3.54" height="19.25" style="fill:#f5f5f5"></rect><rect x="311.8" y="321.15" width="3.54" height="19.25" style="fill:#f5f5f5"></rect><rect x="311.8" y="351.26" width="3.54" height="19.25" style="fill:#f5f5f5"></rect><rect x="299.26" y="230.84" width="3.54" height="19.25" style="fill:#f5f5f5"></rect><rect x="299.26" y="260.95" width="3.54" height="19.25" style="fill:#f5f5f5"></rect><rect x="299.26" y="291.05" width="3.54" height="19.25" style="fill:#f5f5f5"></rect><rect x="299.26" y="321.15" width="3.54" height="19.25" style="fill:#f5f5f5"></rect><rect x="299.26" y="351.26" width="3.54" height="19.25" style="fill:#f5f5f5"></rect><rect x="286.71" y="230.84" width="3.54" height="19.25" style="fill:#f5f5f5"></rect><rect x="286.71" y="260.95" width="3.54" height="19.25" style="fill:#f5f5f5"></rect><rect x="286.71" y="291.05" width="3.54" height="19.25" style="fill:#f5f5f5"></rect><rect x="286.71" y="321.15" width="3.54" height="19.25" style="fill:#f5f5f5"></rect><rect x="286.71" y="351.26" width="3.54" height="19.25" style="fill:#f5f5f5"></rect><polygon points="273.17 224.21 288.48 224.21 295.14 382.4 273.17 382.4 273.17 224.21" style="fill:#e0e0e0;opacity:0.5"></polygon><polygon points="236.63 163.09 280.71 171.43 280.71 382.4 236.63 382.4 236.63 163.09" style="fill:#f0f0f0"></polygon><rect x="201.36" y="163.09" width="35.27" height="219.31" style="fill:#e6e6e6"></rect><rect x="201.36" y="181.26" width="79.35" height="1.12" transform="translate(482.07 363.65) rotate(180)" style="fill:#e0e0e0"></rect><rect x="201.36" y="193.2" width="79.35" height="1.12" transform="translate(482.07 387.53) rotate(180)" style="fill:#e0e0e0"></rect><rect x="201.36" y="205.14" width="79.35" height="1.12" transform="translate(482.07 411.41) rotate(180)" style="fill:#e0e0e0"></rect><rect x="201.36" y="217.09" width="79.35" height="1.12" transform="translate(482.07 435.29) rotate(180)" style="fill:#e0e0e0"></rect><rect x="201.36" y="229.03" width="79.35" height="1.12" transform="translate(482.07 459.18) rotate(180)" style="fill:#e0e0e0"></rect><rect x="201.36" y="240.97" width="79.35" height="1.12" transform="translate(482.07 483.06) rotate(180)" style="fill:#e0e0e0"></rect><rect x="201.36" y="252.91" width="79.35" height="1.12" transform="translate(482.07 506.94) rotate(180)" style="fill:#e0e0e0"></rect><rect x="201.36" y="264.85" width="79.35" height="1.12" transform="translate(482.07 530.82) rotate(180)" style="fill:#e0e0e0"></rect><rect x="201.36" y="276.79" width="79.35" height="1.12" transform="translate(482.07 554.71) rotate(180)" style="fill:#e0e0e0"></rect><rect x="201.36" y="288.73" width="79.35" height="1.12" transform="translate(482.07 578.59) rotate(180)" style="fill:#e0e0e0"></rect><rect x="201.36" y="300.67" width="79.35" height="1.12" transform="translate(482.07 602.47) rotate(180)" style="fill:#e0e0e0"></rect><rect x="201.36" y="312.62" width="79.35" height="1.12" transform="translate(482.07 626.35) rotate(180)" style="fill:#e0e0e0"></rect><rect x="201.36" y="324.56" width="79.35" height="1.12" transform="translate(482.07 650.24) rotate(180)" style="fill:#e0e0e0"></rect><rect x="201.36" y="336.5" width="79.35" height="1.12" transform="translate(482.07 674.12) rotate(180)" style="fill:#e0e0e0"></rect><rect x="201.36" y="348.44" width="79.35" height="1.12" transform="translate(482.07 698) rotate(180)" style="fill:#e0e0e0"></rect><rect x="201.36" y="360.38" width="79.35" height="1.12" transform="translate(482.07 721.88) rotate(180)" style="fill:#e0e0e0"></rect><rect x="201.36" y="372.32" width="79.35" height="1.12" transform="translate(482.07 745.77) rotate(180)" style="fill:#e0e0e0"></rect><rect x="145.2" y="116.48" width="36.87" height="265.92" style="fill:#f0f0f0"></rect><polygon points="182.07 116.48 145.2 116.48 158.77 93 211.57 93 182.07 116.48" style="fill:#fafafa"></polygon><polygon points="182.07 116.48 211.57 93 211.57 382.4 182.07 382.4 182.07 116.48" style="fill:#ebebeb"></polygon><rect x="145.2" y="128.87" width="66.37" height="1.42" style="fill:#e0e0e0"></rect><rect x="145.2" y="143.92" width="66.37" height="1.42" style="fill:#e0e0e0"></rect><rect x="145.2" y="158.97" width="66.37" height="1.42" style="fill:#e0e0e0"></rect><rect x="145.2" y="174.03" width="66.37" height="1.42" style="fill:#e0e0e0"></rect><rect x="145.2" y="189.08" width="66.37" height="1.42" style="fill:#e0e0e0"></rect><rect x="145.2" y="204.13" width="66.37" height="1.42" style="fill:#e0e0e0"></rect><rect x="145.2" y="219.18" width="66.37" height="1.42" style="fill:#e0e0e0"></rect><rect x="145.2" y="234.23" width="66.37" height="1.42" style="fill:#e0e0e0"></rect><rect x="145.2" y="249.28" width="66.37" height="1.42" style="fill:#e0e0e0"></rect><rect x="145.2" y="264.34" width="66.37" height="1.42" style="fill:#e0e0e0"></rect><rect x="145.2" y="279.39" width="66.37" height="1.42" style="fill:#e0e0e0"></rect><rect x="145.2" y="294.44" width="66.37" height="1.42" style="fill:#e0e0e0"></rect><rect x="145.2" y="309.49" width="66.37" height="1.42" style="fill:#e0e0e0"></rect><rect x="145.2" y="324.54" width="66.37" height="1.42" style="fill:#e0e0e0"></rect><rect x="145.2" y="339.59" width="66.37" height="1.42" style="fill:#e0e0e0"></rect><rect x="145.2" y="354.65" width="66.37" height="1.42" style="fill:#e0e0e0"></rect><rect x="145.2" y="369.7" width="66.37" height="1.42" style="fill:#e0e0e0"></rect><rect x="98.55" y="245.16" width="40.25" height="137.24" style="fill:#f0f0f0"></rect><rect x="106.47" y="252.25" width="6.46" height="22.03" style="fill:#e6e6e6"></rect><rect x="122.32" y="252.25" width="6.46" height="22.03" style="fill:#e6e6e6"></rect><rect x="106.47" y="280.78" width="6.46" height="22.03" style="fill:#e6e6e6"></rect><rect x="122.32" y="280.78" width="6.46" height="22.03" style="fill:#e6e6e6"></rect><rect x="106.47" y="309.3" width="6.46" height="22.03" style="fill:#e6e6e6"></rect><rect x="122.32" y="309.3" width="6.46" height="22.03" style="fill:#e6e6e6"></rect><rect x="106.47" y="337.83" width="6.46" height="22.03" style="fill:#e6e6e6"></rect><rect x="122.32" y="337.83" width="6.46" height="22.03" style="fill:#e6e6e6"></rect><polygon points="138.79 245.16 98.55 245.16 107.99 235.65 148.24 235.65 138.79 245.16" style="fill:#fff"></polygon><polygon points="138.79 245.16 148.24 235.65 157.68 245.16 157.68 382.4 138.79 382.4 138.79 245.16" style="fill:#e6e6e6"></polygon></g><g id="freepik--Shadow--inject-14"><ellipse id="freepik--path--inject-14" cx="250" cy="416.24" rx="193.89" ry="11.32" style="fill:#f5f5f5"></ellipse></g><g id="freepik--Smartphone--inject-14"><rect x="280.13" y="114.58" width="146.11" height="301.65" rx="9.29" style="fill:#26CFA2"></rect><rect x="274.35" y="114.58" width="146.11" height="301.65" rx="9.29" style="fill:#26CFA2"></rect><rect x="274.35" y="114.58" width="146.11" height="301.65" rx="9.29" style="fill:#fff;opacity:0.7000000000000001"></rect><g style="opacity:0.9"><rect x="295.77" y="114.58" width="7.91" height="301.65" style="fill:#fff"></rect><rect x="382.52" y="114.58" width="4.85" height="301.65" style="fill:#fff"></rect><polygon points="274.35 180.1 274.35 188.01 420.46 178.96 420.46 171.05 274.35 180.1" style="fill:#fff"></polygon><rect x="343.45" y="297.87" width="7.91" height="146.11" transform="translate(-23.51 718.33) rotate(-90)" style="fill:#fff"></rect><rect x="345.25" y="148.68" width="4.31" height="146.11" transform="translate(125.67 569.15) rotate(-90)" style="fill:#fff"></rect><polygon points="274.35 321.56 274.35 330.62 420.46 281.18 420.46 272.12 274.35 321.56" style="fill:#fff"></polygon><polygon points="325.56 114.58 317.65 114.58 338.91 416.24 346.82 416.24 325.56 114.58" style="fill:#fff"></polygon></g></g><g id="freepik--Car--inject-14"><path d="M395,385.29H221.05V331.07H374.38l14.31,11.63A17.06,17.06,0,0,1,395,356Z" style="fill:#26CFA2"></path><path d="M395,385.29H221.05V331.07H374.38l14.31,11.63A17.06,17.06,0,0,1,395,356Z" style="opacity:0.5"></path><path d="M220.05,380.4c0-19.79,9-35.83,20-35.83H218.83c-11.07,0-20,16-20,35.83s9,35.84,20,35.84h21.26C229,416.24,220.05,400.19,220.05,380.4Z" style="fill:#263238"></path><ellipse cx="240.09" cy="380.4" rx="20.04" ry="35.83" style="fill:#263238"></ellipse><ellipse cx="241.7" cy="380.4" rx="14.21" ry="27.94" style="fill:#fff"></ellipse><path d="M104.54,380.4c0-19.79,9-35.83,20-35.83H103.32c-11.07,0-20,16-20,35.83s9,35.84,20,35.84h21.26C113.51,416.24,104.54,400.19,104.54,380.4Z" style="fill:#263238"></path><ellipse cx="124.58" cy="380.4" rx="20.04" ry="35.83" style="fill:#263238"></ellipse><path d="M357.38,380.4c0-19.79,9-35.83,20-35.83H356.16c-11.06,0-20,16-20,35.83s9,35.84,20,35.84h21.26C366.36,416.24,357.38,400.19,357.38,380.4Z" style="fill:#263238"></path><ellipse cx="377.42" cy="380.4" rx="20.04" ry="35.83" style="fill:#263238"></ellipse><ellipse cx="379.04" cy="380.4" rx="14.21" ry="27.94" style="fill:#fff"></ellipse><path d="M196.37,390.4H170.66L169.22,389a7.9,7.9,0,0,0-5.58-2.32H99.38A7.9,7.9,0,0,0,93.8,389l-.88.87H90.58A13.8,13.8,0,0,1,76.78,376V354.85H222.6L211,380.07A15.5,15.5,0,0,1,196.37,390.4Z" style="fill:#26CFA2"></path><path d="M196.37,390.4H170.66L169.22,389a7.9,7.9,0,0,0-5.58-2.32H99.38A7.9,7.9,0,0,0,93.8,389l-.88.87H90.58A13.8,13.8,0,0,1,76.78,376V354.85H222.6L211,380.07A15.5,15.5,0,0,1,196.37,390.4Z" style="opacity:0.2"></path><path d="M348.16,264.68a.45.45,0,0,1-.25-.07.49.49,0,0,1-.18-.68l7-12a.5.5,0,1,1,.86.5l-7,12A.5.5,0,0,1,348.16,264.68Z" style="fill:#263238"></path><path d="M385.08,324.38V310.74c0-7.17-10.42-41-24.75-47.34s-49-9.16-70.84-8-51,46.84-51,46.84l3.17,39.28c4.44,0,18.58-1.34,20.65,37.52A10.68,10.68,0,0,0,273,389.18h76.46A10.65,10.65,0,0,0,360,380c2-13.85,7.22-38.51,19.81-38.51,8.83,0,15.16,7.56,15.16,16.23h0a58.76,58.76,0,0,0-6.74-27.34Z" style="fill:#26CFA2"></path><path d="M209.49,255.4c-39.77,0-84.83,46.84-84.83,46.84H238.53s29.13-45.67,51-46.84Z" style="fill:#26CFA2"></path><path d="M211.93,255.4c-33.5,0-68.64,33.24-78.89,43.71a1.84,1.84,0,0,0,1.32,3.13h91.86a23.5,23.5,0,0,0,19-9.58c9.88-13.46,28.91-36.43,44.31-37.26Z" style="fill:#fff;opacity:0.4"></path><path d="M238.53,302.24l-42.06,33.19-113.19-.36s-6.5,9.45-6.5,19.78H222.6c2.39-6.33,10.77-13.33,19.1-13.33C241.7,329.74,238.53,302.24,238.53,302.24Z" style="fill:#26CFA2"></path><path d="M211,325.65a.5.5,0,0,1-.49-.43.5.5,0,0,1,.42-.56,55.5,55.5,0,0,0,27.3-12.7,8.06,8.06,0,0,0,1.45-10.74.5.5,0,1,1,.82-.57,9.07,9.07,0,0,1-1.63,12.07,56.34,56.34,0,0,1-27.79,12.92Z" style="opacity:0.2"></path><path d="M83.28,335.07s19.88-23.17,41.38-32.83H238.53l-42.06,33.19Z" style="fill:#26CFA2"></path><rect x="96.66" y="335.07" width="74.67" height="2.17" style="fill:#263238"></rect><path d="M169.78,330.73l4-4a6.64,6.64,0,0,1,3.28-1.79l30.21-6.58a6.58,6.58,0,0,1,3.21.1l1.62.45a6.64,6.64,0,0,1,3.2,10.76l-6.5,7.43a6.66,6.66,0,0,1-4.38,2.24L175.09,342a6.62,6.62,0,0,1-5.3-1.9h0A6.64,6.64,0,0,1,169.78,330.73Z" style="fill:#fff"></path><path d="M98.77,332.85l-3.31-6.19a5.48,5.48,0,0,0-2-2.1h0a5.44,5.44,0,0,0-5.33-.15l-2.51,1.32A5.47,5.47,0,0,0,83,328.8l-1.53,4.53a5.45,5.45,0,0,0,4.23,7.13l6.91,1.19a5.45,5.45,0,0,0,5.73-2.79l.46-.85A5.43,5.43,0,0,0,98.77,332.85Z" style="fill:#fff"></path><path d="M261.79,303.57H367.07a5.72,5.72,0,0,0,5.48-7.37c-2.4-8-7-20.51-13.91-26.89a5.81,5.81,0,0,0-2.73-1.4c-12.41-2.63-32.36-4.38-47.16-5.4a46.56,46.56,0,0,0-36.41,13.84,128.09,128.09,0,0,0-15.19,18.53A5.59,5.59,0,0,0,261.79,303.57Z" style="fill:#fff;opacity:0.4"></path><path d="M193.72,366.57c0,3.28-3.36,5.95-7.5,5.95s-7.5-2.67-7.5-5.95,3.35-5.94,7.5-5.94S193.72,363.29,193.72,366.57Z" style="fill:#263238"></path><path d="M133.29,330.53c2.46,0,3.66,2.52,2.68,5.62s-3.76,5.63-6.23,5.63-3.66-2.52-2.68-5.63S130.83,330.53,133.29,330.53Z" style="fill:#263238"></path><path d="M82.83,366.57c0,3.28-1,5.95-2.11,5.95s-2.12-2.67-2.12-5.95,1-5.94,2.12-5.94S82.83,363.29,82.83,366.57Z" style="fill:#263238"></path><path d="M258.55,302.62v-3.37a6.5,6.5,0,0,1,7.83-6.37l12.82,2.67a6.51,6.51,0,0,1,5.18,6.37v.7a6.51,6.51,0,0,1-6.5,6.51H265.06A6.51,6.51,0,0,1,258.55,302.62Z" style="fill:#263238"></path><path d="M326,263.91s-1.71-.17-4.69-.43c13.18,27,9.82,40.09,9.82,40.09h10.06C341.29,287.13,326,263.91,326,263.91Z" style="fill:#263238"></path><path d="M214.84,291.48a8.58,8.58,0,0,1-8.53,7.76H154.48c-3.78,0-5.15-4.22-2.41-7.36a146.37,146.37,0,0,1,16.06-15.68c9.76-8.22,21.88-12.49,33.21-11.7l4.28.31a8.6,8.6,0,0,1,7.74,6.77A65.14,65.14,0,0,1,214.84,291.48Z" style="fill:#26CFA2;opacity:0.2"></path><path d="M332.33,382.07a.5.5,0,0,1-.5-.5c0-10.12,5.16-51.85,6.51-58.1,1.31-6.07,1.31-12.85,0-17.26a.5.5,0,0,1,.34-.62.51.51,0,0,1,.62.34c1.35,4.56,1.35,11.53,0,17.75s-6.49,47.81-6.49,57.89A.5.5,0,0,1,332.33,382.07Z" style="opacity:0.2"></path><path d="M331,324H318.81a1.51,1.51,0,0,1-1.52-1.85l.25-1.41a2.3,2.3,0,0,1,2.17-1.85H331.9a1.51,1.51,0,0,1,1.52,1.85l-.25,1.41A2.3,2.3,0,0,1,331,324Z" style="opacity:0.2"></path></g><g id="freepik--Pin--inject-14"><path d="M367.88,172.48h-1a26.46,26.46,0,0,0-1.09-7.52l1-.28A27.35,27.35,0,0,1,367.88,172.48Zm-4.31-12.79a26.46,26.46,0,0,0-23.07-13.58v-1a27.42,27.42,0,0,1,23.94,14.1Z" style="fill:#26CFA2"></path><path d="M340.5,148.61a23.87,23.87,0,0,0-23.86,23.87c0,23,23.86,38.76,23.86,38.76s23.88-15.77,23.88-38.76A23.88,23.88,0,0,0,340.5,148.61Zm0,35.11a11.14,11.14,0,1,1,11.15-11.14A11.14,11.14,0,0,1,340.5,183.72Z" style="fill:#26CFA2"></path></g><g id="freepik--Character--inject-14"><polygon points="297.97 414.72 304.01 414.62 305.75 400.62 299.72 400.72 297.97 414.72" style="fill:#b55b52"></polygon><polygon points="326.8 414.27 332.66 412.48 329.02 399.21 323.16 401.01 326.8 414.27" style="fill:#b55b52"></polygon><path d="M332.48,410.72l-6.54,3.37a.53.53,0,0,0-.26.61l1.4,5.31a.88.88,0,0,0,1.27.55c2.09-1.12,3.56-2,6.21-3.41,1.63-.84,6.63-3.2,8.88-4.37s1.4-3.54.38-3.26c-4.6,1.23-8.36,1.59-10.3,1.08A1.44,1.44,0,0,0,332.48,410.72Z" style="fill:#263238"></path><path d="M304.13,413.92l-6.59.11a.52.52,0,0,0-.5.42l-1.11,5.38a.87.87,0,0,0,.88,1.06c2.38-.08,5.81-.27,8.8-.32,3.49-.05,4.51.09,8.61,0,2.47,0,3.12-2.56,2.08-2.77-4.74-1-6.59-1-10.7-3.46A3,3,0,0,0,304.13,413.92Z" style="fill:#263238"></path><path d="M313.3,231.05c1.37,2.75,2.92,5.66,4.47,8.43s3.19,5.53,4.94,8.12c.45.64.87,1.31,1.33,1.92l1.13,1.54c.23.3.36.44.4.51s.06.17.35.19a5.79,5.79,0,0,0,2.85-1.4c.55-.42,1.11-.9,1.66-1.41s1.1-1.1,1.58-1.57L336,249.6a20.23,20.23,0,0,1-1.18,2.57,17.56,17.56,0,0,1-1.54,2.42,14.29,14.29,0,0,1-2.1,2.28,9.8,9.8,0,0,1-3.17,1.89,7.85,7.85,0,0,1-4.56.25,9,9,0,0,1-3.82-2,8.63,8.63,0,0,1-.69-.65l-.32-.33-.23-.26-.88-1c-.59-.67-1.13-1.36-1.69-2a87.4,87.4,0,0,1-5.9-8.6c-.88-1.48-1.75-3-2.55-4.49s-1.58-3-2.32-4.69Z" style="fill:#b55b52"></path><path d="M302.48,231.09c-1.63,5.54,9.82,20.63,9.82,20.63l11.55-7.43a73.68,73.68,0,0,0-8-13.58C311.12,224.68,304.26,225,302.48,231.09Z" style="fill:#26CFA2"></path><g style="opacity:0.2"><path d="M302.48,231.09c-1.63,5.54,9.82,20.63,9.82,20.63l11.55-7.43a73.68,73.68,0,0,0-8-13.58C311.12,224.68,304.26,225,302.48,231.09Z"></path></g><path d="M309.52,237.59c2.37,1,5.87,6.74,7.69,11l-4.9,3.15a91.41,91.41,0,0,1-7.37-11.55C306.49,238.47,308.26,237.06,309.52,237.59Z" style="opacity:0.2"></path><path d="M331.32,248.46l4.18-6.76,3.65,5.83a7.19,7.19,0,0,1-4,3.29Z" style="fill:#b55b52"></path><path d="M341.33,241.77l0,2.09a2.82,2.82,0,0,1-.64,1.79l-1.52,1.88-3.65-5.83,3.77-1.37A1.53,1.53,0,0,1,341.33,241.77Z" style="fill:#b55b52"></path><polygon points="337.25 250.41 330.67 250.31 334.31 236.68 340.89 236.78 337.25 250.41" style="fill:#26CFA2"></polygon><polygon points="337.92 250.41 331.34 250.31 334.98 236.68 341.56 236.78 337.92 250.41" style="fill:#263238"></polygon><polygon points="305.75 400.63 304.85 407.84 298.81 407.94 299.71 400.72 305.75 400.63" style="opacity:0.2"></polygon><polygon points="323.16 401.01 329.03 399.21 330.9 406.05 325.03 407.85 323.16 401.01" style="opacity:0.2"></polygon><path d="M277,234c4.93,21.22,3.86,42.27,4.4,46.81l32.19-2.4c3.09-34.49-4.23-52-4.23-52s-2.07-.4-4.88-.69c-.88-.09-1.84-.17-2.83-.22-.55,0-1.1-.05-1.67-.06a119.5,119.5,0,0,0-13.68,1c-.86.11-1.73.23-2.58.37l-2.28.42-.09,0A5.59,5.59,0,0,0,277,234Z" style="fill:#26CFA2"></path><g style="opacity:0.2"><path d="M277,234c4.93,21.22,3.86,42.27,4.4,46.81l32.19-2.4c3.09-34.49-4.23-52-4.23-52s-2.07-.4-4.88-.69c-.88-.09-1.84-.17-2.83-.22-.55,0-1.1-.05-1.67-.06a119.5,119.5,0,0,0-13.68,1c-.86.11-1.73.23-2.58.37l-2.28.42-.09,0A5.59,5.59,0,0,0,277,234Z"></path></g><path d="M282.45,238.48l-3.7,4.75a1.1,1.1,0,0,1,0,.18c.52,3.22.92,6.37,1.22,9.41C283.52,248.45,283,240.56,282.45,238.48Z" style="opacity:0.2"></path><path d="M287.85,217.06c.77,3.24.72,6.84-1.6,9.42,2.57,2.2,5.9,4.71,11.14,4.51s4.07-3.74,2.54-5.53c-4.47-.72-4.48-3.63-4.52-6.83a1.53,1.53,0,0,0-1.07-1.45l-4.92-1.58A1.23,1.23,0,0,0,287.85,217.06Z" style="fill:#b55b52"></path><path d="M302,251.67c-2.7,0-5.19-3.24-5.68-7.38a8.21,8.21,0,0,1,1.49-6.3,3.37,3.37,0,0,1,2.56-1.22h0c2.69,0,5.19,3.24,5.67,7.38a8.22,8.22,0,0,1-1.48,6.3,3.42,3.42,0,0,1-2.56,1.22Zm-1.62-13.9h0a2.37,2.37,0,0,0-1.81.89,7.28,7.28,0,0,0-1.24,5.51c.41,3.53,2.55,6.5,4.68,6.5h0a2.37,2.37,0,0,0,1.82-.89,7.32,7.32,0,0,0,1.24-5.51h0C304.68,240.74,302.54,237.77,300.42,237.77Z" style="fill:#26CFA2"></path><path d="M295.42,218.81l-4.95.64c.11.22.25.43.38.64.94,1.5,3,2.49,5.14,2.85A10.53,10.53,0,0,1,295.42,218.81Z" style="opacity:0.2"></path><path d="M301.84,206c2.75.46,7.89-2.66,6.69-6.82-1.54,1.93-6.69,1.28-6.69,1.28Z" style="fill:#263238"></path><path d="M291.1,210.4c.3,2.78-3.13,7.73-7.21,6.28,2-1.42,1.68-6.61,1.68-6.61Z" style="fill:#263238"></path><path d="M287.07,205c-.74,5.94-1.48,9.39.93,13,3.61,5.37,11.37,4,13.87-1.57,2.25-5,3.08-13.91-2.24-17.33A8.17,8.17,0,0,0,287.07,205Z" style="fill:#b55b52"></path><path d="M286.25,211c1.45,1.53,5.44-4.72,4.71-7,1.5.66,4.38-.6,4.2-3.08,4.49,2.4,11,4.3,11.1,0s-4-7.55-8-7.89c.48,1.29-.79,1.84-3.4,1.29s-12.67-5.18-11.56,4.07C279.54,198.61,279.05,203.37,286.25,211Z" style="fill:#263238"></path><path d="M283.31,208.69a5.69,5.69,0,0,0,2.2,3.75c1.6,1.19,2.6-.07,2.75-1.95.14-1.7,0-4.36-1.91-4.81A2.55,2.55,0,0,0,283.31,208.69Z" style="fill:#b55b52"></path><path d="M292.38,280l21.16-1.57s2.74,43.43,2.53,61.84c-.21,19.16-9,66.13-9,66.13l-10.22.16s.81-45.56.81-64.37c0-25.33-5.31-62.19-5.31-62.19" style="fill:#263238"></path><path d="M300.56,325.15c.28,1.25,8.15,36.46,10.69,57,1.35-8.54,2.74-18.13,3.68-26.6Z" style="opacity:0.2"></path><path d="M302.12,279.29s16.11,39.46,19.74,56.77c4,18.95,10.35,66.88,10.35,66.88l-10.93,1.7s-8.27-35.83-12.9-54.13c-5.26-20.86-26.12-53.89-27-69.68Z" style="fill:#263238"></path><polygon points="333.58 403.87 320 407.05 318.29 401.82 333.12 399.28 333.58 403.87" style="fill:#26CFA2"></polygon><polygon points="308.39 406.63 296.21 406.82 296.15 402.89 309.75 402.47 308.39 406.63" style="fill:#26CFA2"></polygon><path d="M295.35,208.08c-.09.48.09.91.4,1s.64-.28.73-.76-.09-.91-.41-1S295.44,207.6,295.35,208.08Z" style="fill:#263238"></path><path d="M301.27,209.34c-.09.47.09.91.4,1s.64-.28.73-.76-.09-.92-.4-1S301.36,208.86,301.27,209.34Z" style="fill:#263238"></path><path d="M299.32,209.22a17.41,17.41,0,0,0,1.52,4.52,2.82,2.82,0,0,1-2.37,0Z" style="fill:#a02724"></path><path d="M297.46,215.21a4,4,0,0,1-2.6-1.83.15.15,0,0,1,.06-.2.15.15,0,0,1,.19.06,3.87,3.87,0,0,0,3,1.78.15.15,0,0,1,0,.29A3.83,3.83,0,0,1,297.46,215.21Z" style="fill:#263238"></path><path d="M294.76,205.94a.57.57,0,0,1-.13-.08.31.31,0,0,1,0-.41,2.87,2.87,0,0,1,2.51-.73.29.29,0,0,1,.2.35.28.28,0,0,1-.34.2h0a2.29,2.29,0,0,0-2,.61A.29.29,0,0,1,294.76,205.94Z" style="fill:#263238"></path><path d="M304.46,207.85a.29.29,0,0,1-.19-.2,2.22,2.22,0,0,0-1.34-1.56.29.29,0,0,1-.19-.36.29.29,0,0,1,.36-.19,2.83,2.83,0,0,1,1.72,2,.27.27,0,0,1-.2.35A.22.22,0,0,1,304.46,207.85Z" style="fill:#263238"></path><path d="M334.74,410.74a7,7,0,0,1-1.5.53.12.12,0,0,1-.15,0,.14.14,0,0,1,0-.16c.13-.22,1.31-2.18,2.06-2.18a.46.46,0,0,1,.41.25.87.87,0,0,1,.08.81A1.86,1.86,0,0,1,334.74,410.74Zm-1.23.16a2.93,2.93,0,0,0,1.86-1.07.58.58,0,0,0-.07-.55c-.06-.1-.11-.11-.16-.11C334.75,409.17,334,410.14,333.51,410.9Z" style="fill:#26CFA2"></path><path d="M333.27,411.26l-.08,0a.16.16,0,0,1-.12-.09,4.29,4.29,0,0,1-.34-2.51.81.81,0,0,1,.46-.45h0a.46.46,0,0,1,.57.13c.43.54,0,2.27-.44,2.86A.1.1,0,0,1,333.27,411.26Zm0-2.73a.51.51,0,0,0-.24.26,3.47,3.47,0,0,0,.24,2c.33-.71.56-1.95.31-2.26,0,0-.08-.1-.25,0h0Z" style="fill:#26CFA2"></path><path d="M304.74,414.75a.14.14,0,0,1,0-.26c.27-.15,2.68-1.42,3.42-1a.48.48,0,0,1,.24.38h0a.82.82,0,0,1-.26.7c-.65.59-2.38.38-3.36.2ZM308,413.7a5.94,5.94,0,0,0-2.72.84,3.93,3.93,0,0,0,2.7-.2.52.52,0,0,0,.16-.47.16.16,0,0,0-.09-.15Z" style="fill:#26CFA2"></path><path d="M304.74,414.75l0,0a.16.16,0,0,1-.06-.13,4.17,4.17,0,0,1,.9-2.34,1.1,1.1,0,0,1,.79-.26h0c.4,0,.51.24.54.4.12.68-1.3,2-2,2.34A.14.14,0,0,1,304.74,414.75Zm1.71-2.43a.26.26,0,0,0-.14,0h0a.73.73,0,0,0-.58.19,3.34,3.34,0,0,0-.77,1.87c.74-.45,1.7-1.5,1.63-1.9C306.59,412.42,306.57,412.36,306.45,412.32Zm-.13-.17Z" style="fill:#26CFA2"></path><path d="M286.61,235.88c-2,3.55-4,7.34-5.8,11.07a86.66,86.66,0,0,0-4.65,11.28c-.15.47-.26.93-.4,1.39-.05.21-.14.51-.17.65a3.59,3.59,0,0,0-.08.35,5.84,5.84,0,0,0,.05,1.89,17.56,17.56,0,0,0,1.95,4.87,61.19,61.19,0,0,0,7.22,9.79l-2.9,3.48a43.73,43.73,0,0,1-10.18-9.35,22.49,22.49,0,0,1-3.67-6.76,13,13,0,0,1-.63-4.53c0-.41.08-.84.13-1.25s.11-.62.17-.94c.12-.58.23-1.19.36-1.76a76,76,0,0,1,4.54-12.94,110.57,110.57,0,0,1,6.2-11.92Z" style="fill:#b55b52"></path><path d="M280.33,227.69c-5.57,1.53-11,17.18-11,17.18l13.41,3.72a43.21,43.21,0,0,0,5.57-10.72C291.13,230.26,287.07,225.85,280.33,227.69Z" style="fill:#26CFA2"></path><g style="opacity:0.2"><path d="M280.33,227.69c-5.57,1.53-11,17.18-11,17.18l13.41,3.72a43.21,43.21,0,0,0,5.57-10.72C291.13,230.26,287.07,225.85,280.33,227.69Z"></path></g><path d="M282.16,276.14l6.12,1.61-2.43,5.75s-5.49-1.16-5.46-4.15Z" style="fill:#b55b52"></path><polygon points="290.63 281.65 288.82 286.2 285.85 283.5 288.28 277.75 290.63 281.65" style="fill:#b55b52"></polygon></g></svg>